<svg width="48" height="48" viewBox="0 0 48 48" fill="none" xmlns="http://www.w3.org/2000/svg">
<g clip-path="url(#clip0_193_177)">
<path d="M38 24C36.894 24 36 24.896 36 26V42C36 43.102 35.104 44 34 44H6C4.896 44 4 43.102 4 42V14C4 12.898 4.896 12 6 12H22C23.106 12 24 11.104 24 10C24 8.896 23.106 8 22 8H6C2.692 8 0 10.692 0 14V42C0 45.308 2.692 48 6 48H34C37.308 48 40 45.308 40 42V26C40 24.894 39.106 24 38 24Z" fill="black"/>
<path d="M18.7515 22.178C18.6115 22.318 18.5175 22.496 18.4775 22.688L17.0635 29.76C16.9975 30.088 17.1015 30.426 17.3375 30.664C17.5275 30.854 17.7835 30.956 18.0455 30.956C18.1095 30.956 18.1755 30.95 18.2415 30.936L25.3115 29.522C25.5075 29.482 25.6855 29.388 25.8235 29.248L41.6474 13.424L34.5774 6.354L18.7515 22.178Z" fill="black"/>
<path d="M46.5362 1.46396C44.5862 -0.486035 41.4142 -0.486035 39.4662 1.46396L36.6982 4.23196L43.7682 11.302L46.5362 8.53397C47.4802 7.59197 48.0002 6.33596 48.0002 4.99996C48.0002 3.66396 47.4802 2.40796 46.5362 1.46396Z" fill="black"/>
</g>
<defs>
<clipPath id="clip0_193_177">
<rect width="48" height="48" fill="white"/>
</clipPath>
</defs>
</svg>
