<svg width="85" height="85" viewBox="0 0 85 85" fill="none" xmlns="http://www.w3.org/2000/svg">
<g clip-path="url(#clip0_195_51)">
<path d="M83.2293 40.729C84.221 40.729 85.0002 41.5082 85.0002 42.4998C85.0002 43.4915 84.221 44.2707 83.2293 44.2707H81.4585V40.729H83.2293Z" fill="black"/>
<path d="M44.2709 40.729H81.4584V44.2707H44.2709V40.729Z" fill="black"/>
<path d="M76.1458 85H42.5C43.4917 85 44.2708 84.2208 44.2708 83.2292V81.4583H76.1458C79.0854 81.4583 81.4583 79.0854 81.4583 76.1458V44.2708H83.2292C84.2208 44.2708 85 43.4917 85 42.5V76.1458C85 81.0333 81.0333 85 76.1458 85Z" fill="black"/>
<path d="M85 8.85417V42.5C85 41.5083 84.2208 40.7292 83.2292 40.7292H81.4583V8.85417C81.4583 5.91458 79.0854 3.54167 76.1458 3.54167H44.2708V1.77083C44.2708 0.779167 43.4917 0 42.5 0H76.1458C81.0333 0 85 3.96667 85 8.85417Z" fill="black"/>
<path d="M70.8334 21.25C71.8251 21.25 72.6043 22.0292 72.6043 23.0208C72.6043 24.0125 71.8251 24.7917 70.8334 24.7917H56.6668C55.6751 24.7917 54.8959 24.0125 54.8959 23.0208C54.8959 22.0292 55.6751 21.25 56.6668 21.25H70.8334Z" fill="black"/>
<path d="M70.8334 56.6665C71.8251 56.6665 72.6043 57.4457 72.6043 58.4373C72.6043 59.429 71.8251 60.2082 70.8334 60.2082H56.6668C55.6751 60.2082 54.8959 59.429 54.8959 58.4373C54.8959 57.4457 55.6751 56.6665 56.6668 56.6665H70.8334Z" fill="black"/>
<path d="M70.8334 67.2915C71.8251 67.2915 72.6043 68.0707 72.6043 69.0623C72.6043 70.054 71.8251 70.8332 70.8334 70.8332H56.6668C55.6751 70.8332 54.8959 70.054 54.8959 69.0623C54.8959 68.0707 55.6751 67.2915 56.6668 67.2915H70.8334Z" fill="black"/>
<path d="M44.2707 81.4585V83.2293C44.2707 84.221 43.4915 85.0002 42.4998 85.0002C41.5082 85.0002 40.729 84.221 40.729 83.2293V81.4585H44.2707Z" fill="black"/>
<path d="M40.729 44.271H44.2707V81.4585H40.729V44.271Z" fill="black"/>
<path d="M40.729 40.729H44.2707V44.2707H40.729V40.729Z" fill="black"/>
<path d="M40.729 3.5415H44.2707V40.729H40.729V3.5415Z" fill="black"/>
<path d="M44.2707 1.77083V3.54167H40.729V1.77083C40.729 0.779167 41.5082 0 42.4998 0C43.4915 0 44.2707 0.779167 44.2707 1.77083Z" fill="black"/>
<path d="M3.54175 40.729H40.7292V44.2707H3.54175V40.729Z" fill="black"/>
<path d="M28.3334 21.25C29.3251 21.25 30.1043 22.0292 30.1043 23.0208C30.1043 24.0125 29.3251 24.7917 28.3334 24.7917H23.0209V21.25H28.3334Z" fill="black"/>
<path d="M27.8021 67.8229C28.5104 68.4958 28.5104 69.6292 27.8021 70.3021C27.4833 70.6563 27.0229 70.8333 26.5625 70.8333C26.1021 70.8333 25.6417 70.6563 25.3229 70.3021L21.25 66.2292L23.7292 63.75L27.8021 67.8229Z" fill="black"/>
<path d="M25.3229 57.1978C25.9958 56.4894 27.1292 56.4894 27.8021 57.1978C28.5104 57.8707 28.5104 59.004 27.8021 59.6769L23.7292 63.7498L21.25 61.2707L25.3229 57.1978Z" fill="black"/>
<path d="M18.7606 63.7466L21.2399 61.2673L23.7192 63.7466L21.2399 66.2259L18.7606 63.7466Z" fill="black"/>
<path d="M23.0207 24.7915V30.104C23.0207 31.0957 22.2415 31.8748 21.2498 31.8748C20.2582 31.8748 19.479 31.0957 19.479 30.104V24.7915H23.0207Z" fill="black"/>
<path d="M19.479 21.25H23.0207V24.7917H19.479V21.25Z" fill="black"/>
<path d="M23.0207 15.9373V21.2498H19.479V15.9373C19.479 14.9457 20.2582 14.1665 21.2498 14.1665C22.2415 14.1665 23.0207 14.9457 23.0207 15.9373Z" fill="black"/>
<path d="M21.2498 61.2707L18.7707 63.7498L14.6978 59.6769C13.9894 59.004 13.9894 57.8707 14.6978 57.1978C15.3707 56.4894 16.504 56.4894 17.1769 57.1978L21.2498 61.2707Z" fill="black"/>
<path d="M19.4793 21.25V24.7917H14.1668C13.1752 24.7917 12.396 24.0125 12.396 23.0208C12.396 22.0292 13.1752 21.25 14.1668 21.25H19.4793Z" fill="black"/>
<path d="M17.1769 70.3021C16.8582 70.6563 16.3978 70.8333 15.9373 70.8333C15.4769 70.8333 15.0165 70.6563 14.6978 70.3021C13.9894 69.6292 13.9894 68.4958 14.6978 67.8229L18.7707 63.75L21.2498 66.2292L17.1769 70.3021Z" fill="black"/>
<path d="M3.54167 40.729V44.2707H1.77083C0.779167 44.2707 0 43.4915 0 42.4998C0 41.5082 0.779167 40.729 1.77083 40.729H3.54167Z" fill="black"/>
<path d="M0 8.85417C0 3.96667 3.96667 0 8.85417 0H42.5C41.5083 0 40.7292 0.779167 40.7292 1.77083V3.54167H8.85417C5.91458 3.54167 3.54167 5.91458 3.54167 8.85417V40.7292H1.77083C0.779167 40.7292 0 41.5083 0 42.5V8.85417Z" fill="black"/>
<path d="M3.54167 76.1458C3.54167 79.0854 5.91458 81.4583 8.85417 81.4583H40.7292V83.2292C40.7292 84.2208 41.5083 85 42.5 85H8.85417C3.96667 85 0 81.0333 0 76.1458V42.5C0 43.4917 0.779167 44.2708 1.77083 44.2708H3.54167V76.1458Z" fill="black"/>
</g>
<defs>
<clipPath id="clip0_195_51">
<rect width="85" height="85" fill="white"/>
</clipPath>
</defs>
</svg>
