<svg width="90" height="90" viewBox="0 0 90 90" fill="none" xmlns="http://www.w3.org/2000/svg">
<path d="M63.2231 52.9489C64.6678 52.9472 66.0528 52.3726 67.0744 51.351C68.096 50.3294 68.6706 48.9444 68.6723 47.4997V47.229H72.9916C73.3179 47.2288 73.6307 47.0991 73.8615 46.8684C74.0922 46.6376 74.2219 46.3248 74.2221 45.9985V29.4469C74.2219 29.1206 74.0922 28.8078 73.8615 28.5771C73.6307 28.3463 73.3179 28.2166 72.9916 28.2165H68.6723V27.9472C68.6701 26.5028 68.0952 25.1183 67.0737 24.0972C66.0522 23.0761 64.6674 22.5017 63.2231 22.5H48.34V17.6689C49.871 16.9148 51.1017 15.6648 51.8319 14.1223C52.5621 12.5799 52.7489 10.8357 52.3617 9.17356C51.9746 7.51146 51.0364 6.02928 49.6998 4.9682C48.3632 3.90712 46.7068 3.32959 45.0002 3.32959C43.2936 3.32959 41.6372 3.90712 40.3006 4.9682C38.964 6.02928 38.0258 7.51146 37.6386 9.17356C37.2515 10.8357 37.4382 12.5799 38.1685 14.1223C38.8987 15.6648 40.1294 16.9148 41.6604 17.6689V22.5H26.7773C25.3326 22.5017 23.9475 23.0764 22.926 24.0979C21.9044 25.1195 21.3298 26.5046 21.3281 27.9493V28.2186H17.0088C16.6825 28.2188 16.3696 28.3484 16.1389 28.5792C15.9082 28.8099 15.7785 29.1227 15.7783 29.449V45.9985C15.7785 46.3248 15.9082 46.6376 16.1389 46.8684C16.3696 47.0991 16.6825 47.2288 17.0088 47.229H21.3281V47.4997C21.3298 48.9444 21.9044 50.3294 22.926 51.351C23.9475 52.3726 25.3326 52.9472 26.7773 52.9489H35.3322V56.6867H21.2289C19.7842 56.6884 18.3992 57.263 17.3776 58.2846C16.3561 59.3061 15.7814 60.6912 15.7797 62.1359V85.4297C15.7799 85.756 15.9096 86.0689 16.1403 86.2996C16.371 86.5303 16.6839 86.66 17.0102 86.6602H72.9902C73.3165 86.66 73.6293 86.5303 73.8601 86.2996C74.0908 86.0689 74.2205 85.756 74.2207 85.4297V62.1359C74.219 60.6912 73.6443 59.3061 72.6228 58.2846C71.6012 57.263 70.2162 56.6884 68.7714 56.6867H54.6682V52.9489H63.2231ZM71.7611 30.6774V44.768H68.6723V30.6774H71.7611ZM39.9025 10.8985C39.9025 9.89026 40.2015 8.90468 40.7616 8.06638C41.3218 7.22807 42.1179 6.57469 43.0494 6.18886C43.9809 5.80304 45.0058 5.70208 45.9947 5.89878C46.9835 6.09547 47.8919 6.58098 48.6048 7.2939C49.3177 8.00682 49.8032 8.91513 49.9999 9.90398C50.1966 10.8928 50.0956 11.9178 49.7098 12.8493C49.324 13.7807 48.6706 14.5769 47.8323 15.137C46.994 15.6972 46.0084 15.9961 45.0002 15.9961C43.6487 15.9947 42.3529 15.4571 41.3973 14.5014C40.4416 13.5458 39.904 12.25 39.9025 10.8985ZM44.1213 18.4015C44.7049 18.4756 45.2955 18.4756 45.8791 18.4015V22.5H44.1213V18.4015ZM18.2393 44.768V30.6774H21.3281V44.768H18.2393ZM23.789 47.4997V27.9472C23.79 27.1549 24.1051 26.3954 24.6653 25.8352C25.2255 25.2749 25.985 24.9598 26.7773 24.9589H42.8704H42.8908C42.8908 24.9589 42.9042 24.9589 42.9112 24.9589H47.0892H47.1096C47.1096 24.9589 47.1229 24.9589 47.13 24.9589H63.2231C64.0153 24.9598 64.7749 25.2749 65.3351 25.8352C65.8953 26.3954 66.2104 27.1549 66.2114 27.9472V47.4997C66.2104 48.2919 65.8953 49.0514 65.3351 49.6117C64.7749 50.1719 64.0153 50.487 63.2231 50.4879H53.4714C53.4602 50.4879 53.4496 50.4844 53.4377 50.4844C53.4257 50.4844 53.4152 50.4844 53.4039 50.4879H36.5993C36.588 50.4879 36.5775 50.4844 36.5655 50.4844C36.5536 50.4844 36.543 50.4844 36.5318 50.4879H26.7773C25.985 50.487 25.2255 50.1719 24.6653 49.6117C24.1051 49.0514 23.79 48.2919 23.789 47.4997ZM59.5893 84.1993H30.4096V74.0482H59.5893V84.1993ZM71.7597 62.1359V84.1993H62.0503V72.8178C62.0503 72.4914 61.9206 72.1785 61.6899 71.9477C61.4591 71.7169 61.1461 71.5873 60.8198 71.5873H29.1792C28.8529 71.5875 28.54 71.7172 28.3093 71.9479C28.0786 72.1786 27.9489 72.4915 27.9487 72.8178V84.1993H18.2407V62.1359C18.2416 61.3437 18.5567 60.5841 19.1169 60.0239C19.6771 59.4637 20.4367 59.1486 21.2289 59.1476H68.7714C69.5637 59.1486 70.3232 59.4637 70.8835 60.0239C71.4437 60.5841 71.7588 61.3437 71.7597 62.1359ZM52.2072 56.6867H37.7932V52.9489H52.2072V56.6867Z" fill="black"/>
<path d="M38.8485 34.9088C38.8482 33.8311 38.5284 32.7777 37.9295 31.8818C37.3306 30.9859 36.4794 30.2876 35.4838 29.8754C34.4881 29.4632 33.3925 29.3554 32.3355 29.5658C31.2786 29.7761 30.3078 30.2952 29.5458 31.0572C28.7838 31.8193 28.2649 32.7902 28.0547 33.8472C27.8445 34.9041 27.9524 35.9997 28.3647 36.9953C28.7771 37.991 29.4754 38.842 30.3714 39.4408C31.2674 40.0396 32.3209 40.3592 33.3985 40.3594C34.8436 40.3579 36.2291 39.7831 37.2508 38.7612C38.2726 37.7394 38.8472 36.3538 38.8485 34.9088ZM33.3985 37.8984C32.8075 37.8984 32.2298 37.7232 31.7383 37.3948C31.2469 37.0665 30.8639 36.5998 30.6377 36.0537C30.4115 35.5077 30.3524 34.9068 30.4677 34.3272C30.583 33.7475 30.8676 33.215 31.2855 32.7971C31.7034 32.3792 32.2359 32.0946 32.8155 31.9793C33.3952 31.864 33.9961 31.9232 34.5421 32.1493C35.0881 32.3755 35.5548 32.7585 35.8832 33.25C36.2116 33.7414 36.3868 34.3191 36.3868 34.9102C36.3859 35.7024 36.0708 36.462 35.5105 37.0222C34.9503 37.5824 34.1908 37.8975 33.3985 37.8984Z" fill="black"/>
<path d="M56.6016 40.3594C57.6793 40.3594 58.7329 40.0398 59.629 39.441C60.5251 38.8422 61.2235 37.9912 61.636 36.9955C62.0484 35.9998 62.1563 34.9041 61.9461 33.8471C61.7358 32.79 61.2168 31.8191 60.4547 31.057C59.6927 30.2949 58.7217 29.7759 57.6646 29.5656C56.6076 29.3554 55.5119 29.4633 54.5162 29.8757C53.5205 30.2882 52.6695 30.9866 52.0707 31.8827C51.4719 32.7789 51.1523 33.8324 51.1523 34.9102C51.154 36.3549 51.7287 37.7399 52.7502 38.7615C53.7718 39.783 55.1569 40.3577 56.6016 40.3594ZM56.6016 31.9219C57.1926 31.9219 57.7703 32.0971 58.2618 32.4255C58.7532 32.7538 59.1362 33.2206 59.3624 33.7666C59.5885 34.3126 59.6477 34.9135 59.5324 35.4931C59.4171 36.0728 59.1325 36.6053 58.7146 37.0232C58.2967 37.4411 57.7642 37.7257 57.1845 37.841C56.6049 37.9563 56.004 37.8971 55.458 37.671C54.912 37.4448 54.4453 37.0618 54.1169 36.5704C53.7885 36.0789 53.6133 35.5012 53.6133 34.9102C53.6142 34.1179 53.9293 33.3584 54.4896 32.7982C55.0498 32.2379 55.8093 31.9228 56.6016 31.9219Z" fill="black"/>
<path d="M36.4746 45.6152C36.4748 45.9415 36.6045 46.2544 36.8352 46.4851C37.0659 46.7158 37.3788 46.8455 37.7051 46.8457H52.2949C52.6213 46.8457 52.9342 46.7161 53.165 46.4853C53.3958 46.2545 53.5254 45.9416 53.5254 45.6152C53.5254 45.2889 53.3958 44.9759 53.165 44.7452C52.9342 44.5144 52.6213 44.3848 52.2949 44.3848H37.7051C37.3788 44.385 37.0659 44.5146 36.8352 44.7454C36.6045 44.9761 36.4748 45.289 36.4746 45.6152Z" fill="black"/>
<path d="M66.6623 67.5852C67.3229 67.5852 67.9686 67.3893 68.5178 67.0223C69.0671 66.6554 69.4952 66.1337 69.7479 65.5235C70.0007 64.9132 70.0669 64.2417 69.938 63.5938C69.8091 62.9459 69.491 62.3508 69.024 61.8837C68.5569 61.4167 67.9618 61.0986 67.3139 60.9697C66.666 60.8408 65.9945 60.907 65.3842 61.1597C64.7739 61.4125 64.2523 61.8406 63.8853 62.3898C63.5184 62.9391 63.3225 63.5848 63.3225 64.2454C63.3236 65.1308 63.6758 65.9797 64.3019 66.6058C64.928 67.2319 65.7769 67.5841 66.6623 67.5852ZM66.6623 63.3665C66.8362 63.3665 67.0061 63.418 67.1506 63.5146C67.2952 63.6112 67.4078 63.7484 67.4743 63.909C67.5409 64.0696 67.5583 64.2463 67.5243 64.4168C67.4904 64.5873 67.4067 64.7439 67.2838 64.8668C67.1609 64.9898 67.0043 65.0735 66.8338 65.1074C66.6633 65.1413 66.4866 65.1239 66.326 65.0574C66.1654 64.9908 66.0281 64.8782 65.9315 64.7337C65.835 64.5891 65.7834 64.4192 65.7834 64.2454C65.7836 64.0123 65.8763 63.7889 66.041 63.6241C66.2058 63.4593 66.4293 63.3666 66.6623 63.3665Z" fill="black"/>
<path d="M19.9986 64.2454C19.9986 64.9059 20.1945 65.5516 20.5615 66.1009C20.9285 66.6501 21.4501 67.0782 22.0604 67.331C22.6706 67.5838 23.3422 67.6499 23.99 67.521C24.6379 67.3922 25.233 67.0741 25.7001 66.607C26.1672 66.1399 26.4853 65.5448 26.6141 64.8969C26.743 64.2491 26.6769 63.5775 26.4241 62.9673C26.1713 62.357 25.7432 61.8354 25.194 61.4684C24.6448 61.1014 23.999 60.9055 23.3385 60.9055C22.453 60.9066 21.6042 61.2589 20.9781 61.885C20.352 62.5111 19.9997 63.3599 19.9986 64.2454ZM23.3385 63.3665C23.5123 63.3665 23.6822 63.418 23.8268 63.5146C23.9713 63.6112 24.084 63.7484 24.1505 63.909C24.217 64.0696 24.2344 64.2463 24.2005 64.4168C24.1666 64.5873 24.0829 64.7439 23.9599 64.8668C23.837 64.9898 23.6804 65.0735 23.5099 65.1074C23.3394 65.1413 23.1627 65.1239 23.0021 65.0574C22.8415 64.9908 22.7043 64.8782 22.6077 64.7337C22.5111 64.5891 22.4596 64.4192 22.4596 64.2454C22.4596 64.0123 22.5522 63.7887 22.717 63.6239C22.8818 63.4591 23.1054 63.3665 23.3385 63.3665Z" fill="black"/>
</svg>
